<svg xmlns="http://www.w3.org/2000/svg" xmlns:xlink="http://www.w3.org/1999/xlink" width="500" zoomAndPan="magnify" viewBox="0 0 375 374.999991" height="500" preserveAspectRatio="xMidYMid meet" version="1.0"><defs><g/><clipPath id="id1"><path d="M 87 228 L 97 228 L 97 231.46875 L 87 231.46875 Z M 87 228 " clip-rule="nonzero"/></clipPath><clipPath id="id2"><path d="M 96 228 L 107 228 L 107 231.46875 L 96 231.46875 Z M 96 228 " clip-rule="nonzero"/></clipPath><clipPath id="id3"><path d="M 87 224 L 106 224 L 106 231.46875 L 87 231.46875 Z M 87 224 " clip-rule="nonzero"/></clipPath><clipPath id="id4"><path d="M 96 133.96875 L 107 133.96875 L 107 138 L 96 138 Z M 96 133.96875 " clip-rule="nonzero"/></clipPath><clipPath id="id5"><path d="M 87 133.96875 L 97 133.96875 L 97 138 L 87 138 Z M 87 133.96875 " clip-rule="nonzero"/></clipPath><clipPath id="id6"><path d="M 87 133.96875 L 106 133.96875 L 106 142 L 87 142 Z M 87 133.96875 " clip-rule="nonzero"/></clipPath><clipPath id="id7"><path d="M 96 182 L 148.289062 182 L 148.289062 229 L 96 229 Z M 96 182 " clip-rule="nonzero"/></clipPath><clipPath id="id8"><path d="M 87 224 L 106 224 L 106 231.46875 L 87 231.46875 Z M 87 224 " clip-rule="nonzero"/></clipPath><clipPath id="id9"><path d="M 96 137 L 148.289062 137 L 148.289062 183 L 96 183 Z M 96 137 " clip-rule="nonzero"/></clipPath><clipPath id="id10"><path d="M 87 133.96875 L 106 133.96875 L 106 142 L 87 142 Z M 87 133.96875 " clip-rule="nonzero"/></clipPath><clipPath id="id11"><path d="M 57 228 L 67 228 L 67 231.46875 L 57 231.46875 Z M 57 228 " clip-rule="nonzero"/></clipPath><clipPath id="id12"><path d="M 66 228 L 76 228 L 76 231.46875 L 66 231.46875 Z M 66 228 " clip-rule="nonzero"/></clipPath><clipPath id="id13"><path d="M 57 224 L 76 224 L 76 231.46875 L 57 231.46875 Z M 57 224 " clip-rule="nonzero"/></clipPath><clipPath id="id14"><path d="M 66 133.96875 L 76 133.96875 L 76 138 L 66 138 Z M 66 133.96875 " clip-rule="nonzero"/></clipPath><clipPath id="id15"><path d="M 57 133.96875 L 67 133.96875 L 67 138 L 57 138 Z M 57 133.96875 " clip-rule="nonzero"/></clipPath><clipPath id="id16"><path d="M 57 133.96875 L 76 133.96875 L 76 142 L 57 142 Z M 57 133.96875 " clip-rule="nonzero"/></clipPath></defs><rect x="-37.5" width="450" fill="rgb(100%, 100%, 100%)" y="-37.499999" height="449.999989" fill-opacity="1"/><rect x="-37.5" width="450" fill="rgb(32.159424%, 44.309998%, 100%)" y="-37.499999" height="449.999989" fill-opacity="1"/><rect x="-37.5" width="450" fill="rgb(100%, 100%, 100%)" y="-37.499999" height="449.999989" fill-opacity="1"/><rect x="-37.5" width="450" fill="rgb(32.159424%, 44.309998%, 100%)" y="-37.499999" height="449.999989" fill-opacity="1"/><g clip-path="url(#id1)"><path fill="rgb(100%, 100%, 100%)" d="M 87.367188 228.164062 C 88.675781 229.25 90.132812 230.078125 91.738281 230.648438 C 93.34375 231.214844 95 231.488281 96.703125 231.464844 C 93.316406 231.253906 90.253906 230.152344 87.519531 228.15625 C 87.421875 228.164062 87.367188 228.164062 87.367188 228.164062 Z M 87.367188 228.164062 " fill-opacity="0.698" fill-rule="nonzero"/></g><g clip-path="url(#id2)"><path fill="rgb(100%, 100%, 100%)" d="M 106.039062 228.164062 C 106.039062 228.164062 105.984375 228.164062 105.886719 228.15625 C 103.152344 230.152344 100.089844 231.253906 96.703125 231.464844 C 98.40625 231.488281 100.0625 231.214844 101.667969 230.648438 C 103.277344 230.078125 104.730469 229.25 106.039062 228.164062 Z M 106.039062 228.164062 " fill-opacity="0.698" fill-rule="nonzero"/></g><g clip-path="url(#id3)"><path fill="rgb(100%, 100%, 100%)" d="M 87.519531 228.15625 C 88.160156 228.6875 88.839844 229.160156 89.5625 229.570312 C 90.285156 229.984375 91.035156 230.328125 91.820312 230.613281 C 92.601562 230.894531 93.402344 231.105469 94.222656 231.25 C 95.042969 231.390625 95.871094 231.464844 96.703125 231.464844 C 97.535156 231.464844 98.363281 231.390625 99.183594 231.25 C 100.003906 231.105469 100.804688 230.894531 101.585938 230.613281 C 102.371094 230.328125 103.121094 229.984375 103.84375 229.570312 C 104.566406 229.160156 105.246094 228.6875 105.886719 228.15625 C 105.136719 228.109375 101.609375 227.714844 96.703125 224.402344 C 91.796875 227.714844 88.269531 228.109375 87.519531 228.15625 Z M 87.519531 228.15625 " fill-opacity="0.698" fill-rule="nonzero"/></g><g clip-path="url(#id4)"><path fill="rgb(100%, 100%, 100%)" d="M 106.039062 137.277344 C 104.730469 136.1875 103.277344 135.359375 101.667969 134.792969 C 100.0625 134.222656 98.40625 133.953125 96.703125 133.976562 C 100.089844 134.183594 103.152344 135.285156 105.886719 137.28125 C 105.984375 137.277344 106.039062 137.277344 106.039062 137.277344 Z M 106.039062 137.277344 " fill-opacity="0.698" fill-rule="nonzero"/></g><g clip-path="url(#id5)"><path fill="rgb(100%, 100%, 100%)" d="M 87.367188 137.277344 C 87.367188 137.277344 87.421875 137.277344 87.519531 137.28125 C 90.253906 135.285156 93.316406 134.183594 96.703125 133.976562 C 95 133.949219 93.34375 134.222656 91.738281 134.789062 C 90.132812 135.359375 88.675781 136.1875 87.367188 137.277344 Z M 87.367188 137.277344 " fill-opacity="0.698" fill-rule="nonzero"/></g><g clip-path="url(#id6)"><path fill="rgb(100%, 100%, 100%)" d="M 105.886719 137.28125 C 105.246094 136.753906 104.566406 136.28125 103.84375 135.867188 C 103.121094 135.457031 102.371094 135.109375 101.585938 134.828125 C 100.804688 134.546875 100.003906 134.332031 99.183594 134.191406 C 98.363281 134.046875 97.535156 133.976562 96.703125 133.976562 C 95.871094 133.976562 95.042969 134.046875 94.222656 134.191406 C 93.402344 134.332031 92.601562 134.546875 91.820312 134.828125 C 91.035156 135.109375 90.285156 135.457031 89.5625 135.867188 C 88.839844 136.28125 88.160156 136.753906 87.519531 137.28125 C 88.269531 137.328125 91.796875 137.722656 96.703125 141.035156 C 101.609375 137.722656 105.136719 137.328125 105.886719 137.28125 Z M 105.886719 137.28125 " fill-opacity="0.698" fill-rule="nonzero"/></g><g clip-path="url(#id7)"><path fill="rgb(100%, 100%, 100%)" d="M 103.476562 218.53125 C 101.441406 220.742188 99.183594 222.699219 96.703125 224.402344 C 101.605469 227.714844 105.136719 228.109375 105.886719 228.15625 C 107.960938 226.726562 109.800781 225.046875 111.40625 223.109375 L 148.03125 182.71875 L 135.699219 182.71875 Z M 103.476562 218.53125 " fill-opacity="1" fill-rule="nonzero"/></g><g clip-path="url(#id8)"><path fill="rgb(100%, 100%, 100%)" d="M 87.519531 228.15625 C 88.160156 228.6875 88.839844 229.160156 89.5625 229.570312 C 90.285156 229.984375 91.035156 230.328125 91.820312 230.613281 C 92.601562 230.894531 93.402344 231.105469 94.222656 231.25 C 95.042969 231.390625 95.871094 231.464844 96.703125 231.464844 C 97.535156 231.464844 98.363281 231.390625 99.183594 231.25 C 100.003906 231.105469 100.804688 230.894531 101.585938 230.613281 C 102.371094 230.328125 103.121094 229.984375 103.84375 229.570312 C 104.566406 229.160156 105.246094 228.6875 105.886719 228.15625 C 105.136719 228.109375 101.609375 227.714844 96.703125 224.402344 C 91.796875 227.714844 88.269531 228.109375 87.519531 228.15625 Z M 87.519531 228.15625 " fill-opacity="1" fill-rule="nonzero"/></g><g clip-path="url(#id9)"><path fill="rgb(100%, 100%, 100%)" d="M 103.476562 146.910156 L 135.699219 182.71875 L 148.03125 182.71875 L 111.40625 142.328125 C 109.800781 140.394531 107.960938 138.710938 105.886719 137.28125 C 105.136719 137.328125 101.609375 137.722656 96.703125 141.035156 C 99.183594 142.742188 101.441406 144.699219 103.476562 146.910156 Z M 103.476562 146.910156 " fill-opacity="1" fill-rule="nonzero"/></g><g clip-path="url(#id10)"><path fill="rgb(100%, 100%, 100%)" d="M 105.886719 137.28125 C 105.246094 136.753906 104.566406 136.28125 103.84375 135.867188 C 103.121094 135.457031 102.371094 135.109375 101.585938 134.828125 C 100.804688 134.546875 100.003906 134.332031 99.183594 134.191406 C 98.363281 134.046875 97.535156 133.976562 96.703125 133.976562 C 95.871094 133.976562 95.042969 134.046875 94.222656 134.191406 C 93.402344 134.332031 92.601562 134.546875 91.820312 134.828125 C 91.035156 135.109375 90.285156 135.457031 89.5625 135.867188 C 88.839844 136.28125 88.160156 136.753906 87.519531 137.28125 C 88.269531 137.328125 91.796875 137.722656 96.703125 141.035156 C 101.609375 137.722656 105.136719 137.328125 105.886719 137.28125 Z M 105.886719 137.28125 " fill-opacity="1" fill-rule="nonzero"/></g><g clip-path="url(#id11)"><path fill="rgb(100%, 100%, 100%)" d="M 57.039062 228.164062 C 58.34375 229.25 59.800781 230.078125 61.40625 230.648438 C 63.011719 231.214844 64.667969 231.488281 66.371094 231.464844 C 62.984375 231.253906 59.925781 230.152344 57.1875 228.15625 C 57.09375 228.164062 57.039062 228.164062 57.039062 228.164062 Z M 57.039062 228.164062 " fill-opacity="0.698" fill-rule="nonzero"/></g><g clip-path="url(#id12)"><path fill="rgb(100%, 100%, 100%)" d="M 75.707031 228.164062 C 75.707031 228.164062 75.652344 228.164062 75.554688 228.15625 C 72.820312 230.152344 69.757812 231.253906 66.371094 231.464844 C 68.078125 231.488281 69.734375 231.214844 71.339844 230.648438 C 72.945312 230.078125 74.402344 229.25 75.707031 228.164062 Z M 75.707031 228.164062 " fill-opacity="0.698" fill-rule="nonzero"/></g><g clip-path="url(#id13)"><path fill="rgb(100%, 100%, 100%)" d="M 57.1875 228.15625 C 57.828125 228.6875 58.507812 229.160156 59.230469 229.570312 C 59.953125 229.984375 60.707031 230.328125 61.488281 230.613281 C 62.269531 230.894531 63.074219 231.105469 63.894531 231.25 C 64.714844 231.390625 65.539062 231.464844 66.371094 231.464844 C 67.203125 231.464844 68.03125 231.390625 68.851562 231.25 C 69.671875 231.105469 70.472656 230.894531 71.253906 230.613281 C 72.039062 230.328125 72.792969 229.984375 73.511719 229.570312 C 74.234375 229.160156 74.914062 228.6875 75.554688 228.15625 C 74.804688 228.109375 71.277344 227.714844 66.371094 224.402344 C 61.464844 227.714844 57.941406 228.109375 57.1875 228.15625 Z M 57.1875 228.15625 " fill-opacity="0.698" fill-rule="nonzero"/><path fill="rgb(100%, 100%, 100%)" d="M 57.1875 228.15625 C 57.828125 228.6875 58.507812 229.160156 59.230469 229.570312 C 59.953125 229.984375 60.707031 230.328125 61.488281 230.613281 C 62.269531 230.894531 63.074219 231.105469 63.894531 231.25 C 64.714844 231.390625 65.539062 231.464844 66.371094 231.464844 C 67.203125 231.464844 68.03125 231.390625 68.851562 231.25 C 69.671875 231.105469 70.472656 230.894531 71.253906 230.613281 C 72.039062 230.328125 72.792969 229.984375 73.511719 229.570312 C 74.234375 229.160156 74.914062 228.6875 75.554688 228.15625 C 74.804688 228.109375 71.277344 227.714844 66.371094 224.402344 C 61.464844 227.714844 57.941406 228.109375 57.1875 228.15625 Z M 57.1875 228.15625 " fill-opacity="1" fill-rule="nonzero"/></g><path fill="rgb(100%, 100%, 100%)" d="M 45.375 182.71875 L 75.492188 215.925781 L 81.539062 209.203125 L 57.710938 182.71875 Z M 45.375 182.71875 " fill-opacity="1" fill-rule="nonzero"/><path fill="rgb(100%, 100%, 100%)" d="M 57.707031 182.71875 L 45.375 182.71875 L 75.488281 149.511719 L 81.535156 156.234375 " fill-opacity="1" fill-rule="nonzero"/><path fill="rgb(100%, 100%, 100%)" d="M 105.367188 182.71875 L 81.539062 209.207031 L 87.585938 215.929688 L 117.699219 182.722656 Z M 105.367188 182.71875 " fill-opacity="1" fill-rule="nonzero"/><path fill="rgb(100%, 100%, 100%)" d="M 73.144531 218.53125 C 71.109375 220.742188 68.851562 222.699219 66.371094 224.402344 C 71.273438 227.714844 74.804688 228.109375 75.554688 228.15625 C 77.628906 226.726562 79.46875 225.046875 81.074219 223.109375 L 81.539062 222.597656 L 75.488281 215.925781 Z M 73.144531 218.53125 " fill-opacity="1" fill-rule="nonzero"/><path fill="rgb(100%, 100%, 100%)" d="M 81.539062 209.207031 L 75.488281 215.929688 L 81.539062 222.601562 L 87.585938 215.929688 Z M 81.539062 209.207031 " fill-opacity="0.698" fill-rule="nonzero"/><path fill="rgb(100%, 100%, 100%)" d="M 81.539062 209.207031 L 75.488281 215.929688 L 81.539062 222.601562 L 87.585938 215.929688 Z M 81.539062 209.207031 " fill-opacity="1" fill-rule="nonzero"/><path fill="rgb(100%, 100%, 100%)" d="M 59.597656 218.53125 L 27.378906 182.71875 L 15.046875 182.71875 L 51.671875 223.109375 C 53.277344 225.046875 55.113281 226.726562 57.1875 228.15625 C 57.9375 228.109375 61.464844 227.714844 66.371094 224.402344 C 63.890625 222.699219 61.632812 220.742188 59.597656 218.53125 Z M 59.597656 218.53125 " fill-opacity="1" fill-rule="nonzero"/><path fill="rgb(100%, 100%, 100%)" d="M 59.597656 146.910156 C 61.632812 144.699219 63.890625 142.742188 66.371094 141.035156 C 61.464844 137.722656 57.941406 137.328125 57.1875 137.28125 C 55.113281 138.710938 53.277344 140.394531 51.671875 142.328125 L 15.046875 182.71875 L 27.378906 182.71875 Z M 59.597656 146.910156 " fill-opacity="1" fill-rule="nonzero"/><g clip-path="url(#id14)"><path fill="rgb(100%, 100%, 100%)" d="M 75.707031 137.277344 C 74.402344 136.1875 72.945312 135.359375 71.339844 134.792969 C 69.734375 134.222656 68.078125 133.953125 66.371094 133.976562 C 69.757812 134.183594 72.820312 135.285156 75.554688 137.28125 C 75.652344 137.277344 75.707031 137.277344 75.707031 137.277344 Z M 75.707031 137.277344 " fill-opacity="0.698" fill-rule="nonzero"/></g><path fill="rgb(100%, 100%, 100%)" d="M 117.699219 182.71875 L 87.585938 149.511719 L 81.539062 156.234375 L 105.367188 182.71875 Z M 117.699219 182.71875 " fill-opacity="1" fill-rule="nonzero"/><g clip-path="url(#id15)"><path fill="rgb(100%, 100%, 100%)" d="M 57.039062 137.277344 C 57.039062 137.277344 57.09375 137.277344 57.1875 137.28125 C 59.925781 135.285156 62.984375 134.183594 66.371094 133.976562 C 64.667969 133.953125 63.011719 134.222656 61.40625 134.792969 C 59.800781 135.359375 58.34375 136.1875 57.039062 137.277344 Z M 57.039062 137.277344 " fill-opacity="0.698" fill-rule="nonzero"/></g><path fill="rgb(100%, 100%, 100%)" d="M 75.554688 137.28125 C 74.804688 137.328125 71.277344 137.722656 66.371094 141.035156 C 68.851562 142.742188 71.109375 144.699219 73.144531 146.910156 L 75.488281 149.515625 L 81.539062 142.84375 L 81.074219 142.332031 C 79.46875 140.394531 77.628906 138.710938 75.554688 137.28125 Z M 75.554688 137.28125 " fill-opacity="1" fill-rule="nonzero"/><path fill="rgb(100%, 100%, 100%)" d="M 81.539062 156.234375 L 87.585938 149.511719 L 81.539062 142.839844 L 75.488281 149.511719 Z M 81.539062 156.234375 " fill-opacity="0.698" fill-rule="nonzero"/><path fill="rgb(100%, 100%, 100%)" d="M 81.539062 156.234375 L 87.585938 149.511719 L 81.539062 142.839844 L 75.488281 149.511719 Z M 81.539062 156.234375 " fill-opacity="1" fill-rule="nonzero"/><g clip-path="url(#id16)"><path fill="rgb(100%, 100%, 100%)" d="M 75.554688 137.28125 C 74.914062 136.753906 74.234375 136.28125 73.511719 135.867188 C 72.792969 135.457031 72.039062 135.109375 71.257812 134.828125 C 70.472656 134.546875 69.671875 134.332031 68.851562 134.191406 C 68.03125 134.046875 67.203125 133.976562 66.371094 133.976562 C 65.539062 133.976562 64.710938 134.046875 63.894531 134.191406 C 63.074219 134.332031 62.269531 134.546875 61.488281 134.828125 C 60.707031 135.109375 59.953125 135.457031 59.230469 135.867188 C 58.507812 136.28125 57.828125 136.753906 57.1875 137.28125 C 57.9375 137.328125 61.464844 137.722656 66.371094 141.035156 C 71.273438 137.722656 74.808594 137.328125 75.554688 137.28125 Z M 75.554688 137.28125 " fill-opacity="0.698" fill-rule="nonzero"/><path fill="rgb(100%, 100%, 100%)" d="M 75.554688 137.28125 C 74.914062 136.753906 74.234375 136.28125 73.511719 135.867188 C 72.792969 135.457031 72.039062 135.109375 71.257812 134.828125 C 70.472656 134.546875 69.671875 134.332031 68.851562 134.191406 C 68.03125 134.046875 67.203125 133.976562 66.371094 133.976562 C 65.539062 133.976562 64.710938 134.046875 63.894531 134.191406 C 63.074219 134.332031 62.269531 134.546875 61.488281 134.828125 C 60.707031 135.109375 59.953125 135.457031 59.230469 135.867188 C 58.507812 136.28125 57.828125 136.753906 57.1875 137.28125 C 57.9375 137.328125 61.464844 137.722656 66.371094 141.035156 C 71.273438 137.722656 74.808594 137.328125 75.554688 137.28125 Z M 75.554688 137.28125 " fill-opacity="1" fill-rule="nonzero"/></g><g fill="rgb(100%, 100%, 100%)" fill-opacity="1"><g transform="translate(161.407436, 178.079034)"><g><path d="M 36.007812 -29.851562 L 26.75 -29.851562 L 20.949219 -3.71875 L 19.222656 -3.71875 L 13.417969 -29.851562 L 4.117188 -29.851562 L 4.117188 0 L 8.328125 0 L 8.328125 -26.128906 L 9.964844 -26.128906 L 16.03125 0 L 24.09375 0 L 30.207031 -26.128906 L 31.800781 -26.128906 L 31.800781 0 L 36.007812 0 Z M 36.007812 -29.851562 "/></g></g></g><g fill="rgb(100%, 100%, 100%)" fill-opacity="1"><g transform="translate(201.533355, 178.079034)"><g><path d="M 21.171875 -13.242188 C 21.171875 -18.113281 20.859375 -23.605469 12.046875 -23.605469 C 3.71875 -23.605469 2.523438 -19.574219 2.523438 -13.417969 L 2.523438 -9.832031 C 2.523438 -3.984375 3.320312 0.441406 12.402344 0.441406 C 15.898438 0.441406 18.027344 0.0429688 20.0625 -0.707031 L 19.929688 -3.984375 C 17.183594 -3.277344 14.703125 -3.101562 12.402344 -3.101562 C 7.261719 -3.101562 6.597656 -5.359375 6.597656 -9.167969 L 6.597656 -10.230469 L 21.171875 -10.230469 Z M 6.597656 -13.90625 C 6.597656 -17.628906 7.128906 -20.152344 12.046875 -20.152344 C 17.273438 -20.152344 17.40625 -16.960938 17.40625 -14.082031 L 17.40625 -13.242188 L 6.597656 -13.242188 Z M 6.597656 -13.90625 "/></g></g></g><g fill="rgb(100%, 100%, 100%)" fill-opacity="1"><g transform="translate(224.652259, 178.079034)"><g><path d="M 15.101562 -3.234375 C 14.4375 -3.101562 12.3125 -3.011719 11.871094 -3.011719 C 9.789062 -3.011719 9.078125 -4.296875 9.078125 -6.953125 L 9.078125 -19.621094 L 15.101562 -19.621094 L 15.101562 -23.117188 L 9.078125 -23.117188 L 9.078125 -28.875 L 5.050781 -28.875 L 5.050781 -23.117188 L 1.019531 -23.117188 L 1.019531 -19.621094 L 5.050781 -19.621094 L 5.050781 -6.597656 C 5.050781 -2.390625 5.757812 0.398438 10.453125 0.398438 C 11.472656 0.398438 14.039062 0.222656 15.191406 -0.0429688 Z M 15.101562 -3.234375 "/></g></g></g><g fill="rgb(100%, 100%, 100%)" fill-opacity="1"><g transform="translate(241.880715, 178.079034)"><g><path d="M 11.515625 -23.605469 C 4.117188 -23.605469 2.523438 -19.265625 2.523438 -14.261719 L 2.523438 -8.460938 C 2.523438 -3.675781 3.898438 0.355469 10.054688 0.355469 C 13.199219 0.355469 16.121094 -1.59375 18.511719 -3.585938 L 18.511719 0 L 22.320312 0 L 22.320312 -22.234375 C 19.839844 -22.984375 15.457031 -23.605469 11.515625 -23.605469 Z M 6.597656 -8.414062 L 6.597656 -14.394531 C 6.597656 -16.253906 6.597656 -20.152344 12.222656 -20.152344 C 14.082031 -20.152344 16.5625 -19.886719 18.246094 -19.574219 L 18.246094 -7.261719 C 16.164062 -5.136719 13.464844 -3.101562 10.851562 -3.101562 C 7.308594 -3.101562 6.597656 -5.625 6.597656 -8.414062 Z M 6.597656 -8.414062 "/></g></g></g><g fill="rgb(100%, 100%, 100%)" fill-opacity="1"><g transform="translate(161.407436, 239.302341)"><g><path d="M 4.117188 0 L 22.453125 0 L 22.453125 -3.71875 L 8.371094 -3.71875 L 8.371094 -12.136719 L 21.304688 -12.136719 L 21.304688 -15.765625 L 8.371094 -15.765625 L 8.371094 -26.128906 L 22.234375 -26.128906 L 22.234375 -29.851562 L 4.117188 -29.851562 Z M 4.117188 0 "/></g></g></g><g fill="rgb(100%, 100%, 100%)" fill-opacity="1"><g transform="translate(185.722149, 239.302341)"><g><path d="M 17.9375 0 L 22.367188 0 L 16.519531 -11.957031 L 21.746094 -23.117188 L 17.363281 -23.117188 L 13.152344 -13.507812 L 10.363281 -13.507812 L 6.15625 -23.117188 L 1.773438 -23.117188 L 6.953125 -11.957031 L 1.105469 0 L 5.535156 0 L 10.320312 -10.007812 L 13.199219 -10.007812 Z M 17.9375 0 "/></g></g></g><g fill="rgb(100%, 100%, 100%)" fill-opacity="1"><g transform="translate(209.239656, 239.302341)"><g><path d="M 19.929688 -11.957031 L 19.972656 -21.65625 C 18.335938 -22.585938 15.101562 -23.605469 12.222656 -23.605469 C 3.1875 -23.605469 2.523438 -19.222656 2.523438 -13.375 L 2.523438 -9.789062 C 2.523438 -3.1875 3.808594 0.441406 12.222656 0.441406 C 15.191406 0.441406 18.246094 -0.132812 19.707031 -0.707031 L 19.574219 -3.941406 C 17.628906 -3.453125 14.925781 -3.054688 12.445312 -3.054688 C 7.128906 -3.054688 6.554688 -5.625 6.554688 -9.476562 L 6.554688 -13.683594 C 6.554688 -17.363281 6.910156 -20.152344 12.488281 -20.152344 C 14.039062 -20.152344 15.546875 -19.707031 16.609375 -19.222656 L 16.609375 -11.957031 Z M 19.929688 -11.957031 "/></g></g></g><g fill="rgb(100%, 100%, 100%)" fill-opacity="1"><g transform="translate(231.517071, 239.302341)"><g><path d="M 15.8125 -23.605469 C 12.886719 -23.605469 10.140625 -21.921875 7.484375 -19.707031 L 7.484375 -29.851562 L 3.367188 -29.851562 L 3.367188 0 L 7.484375 0 L 7.484375 -15.988281 C 9.742188 -18.160156 12.445312 -20.0625 15.148438 -20.0625 C 18.160156 -20.0625 18.824219 -17.582031 18.824219 -14.703125 L 18.824219 0 L 22.984375 0 L 22.984375 -14.75 C 22.984375 -19.488281 21.789062 -23.605469 15.8125 -23.605469 Z M 15.8125 -23.605469 "/></g></g></g><g fill="rgb(100%, 100%, 100%)" fill-opacity="1"><g transform="translate(257.514762, 239.302341)"><g><path d="M 11.515625 -23.605469 C 4.117188 -23.605469 2.523438 -19.265625 2.523438 -14.261719 L 2.523438 -8.460938 C 2.523438 -3.675781 3.898438 0.355469 10.054688 0.355469 C 13.199219 0.355469 16.121094 -1.59375 18.511719 -3.585938 L 18.511719 0 L 22.320312 0 L 22.320312 -22.234375 C 19.839844 -22.984375 15.457031 -23.605469 11.515625 -23.605469 Z M 6.597656 -8.414062 L 6.597656 -14.394531 C 6.597656 -16.253906 6.597656 -20.152344 12.222656 -20.152344 C 14.082031 -20.152344 16.5625 -19.886719 18.246094 -19.574219 L 18.246094 -7.261719 C 16.164062 -5.136719 13.464844 -3.101562 10.851562 -3.101562 C 7.308594 -3.101562 6.597656 -5.625 6.597656 -8.414062 Z M 6.597656 -8.414062 "/></g></g></g><g fill="rgb(100%, 100%, 100%)" fill-opacity="1"><g transform="translate(283.20244, 239.302341)"><g><path d="M 15.8125 -23.605469 C 12.886719 -23.605469 10.230469 -22.054688 7.21875 -19.53125 L 7.21875 -23.117188 L 3.367188 -23.117188 L 3.367188 0 L 7.484375 0 L 7.484375 -15.945312 C 10.007812 -18.511719 12.800781 -20.0625 15.148438 -20.0625 C 18.113281 -20.0625 18.824219 -17.804688 18.824219 -14.394531 L 18.824219 0 L 22.984375 0 L 22.984375 -14.75 C 22.984375 -20.285156 20.992188 -23.605469 15.8125 -23.605469 Z M 15.8125 -23.605469 "/></g></g></g><g fill="rgb(100%, 100%, 100%)" fill-opacity="1"><g transform="translate(309.200132, 239.302341)"><g><path d="M 11.515625 -23.605469 C 4.117188 -23.605469 2.523438 -19.308594 2.523438 -14.304688 L 2.523438 -10.230469 C 2.523438 -5.226562 4.074219 -1.0625 9.921875 -1.0625 C 13.199219 -1.0625 16.03125 -2.96875 18.203125 -4.871094 L 18.203125 -0.132812 C 18.203125 2.746094 16.121094 4.515625 13.019531 4.515625 C 9.566406 4.515625 6.289062 4.03125 4.472656 3.542969 L 4.339844 6.863281 C 7.085938 7.484375 9.390625 7.972656 13.066406 7.972656 C 18.910156 7.972656 22.320312 5.269531 22.320312 0.355469 L 22.320312 -21.921875 C 19.753906 -22.765625 15.632812 -23.605469 11.515625 -23.605469 Z M 10.761719 -4.5625 C 7.308594 -4.5625 6.554688 -7.128906 6.554688 -10.320312 L 6.554688 -14.570312 C 6.554688 -16.121094 6.597656 -20.152344 12.222656 -20.152344 C 14.082031 -20.152344 16.476562 -19.753906 18.203125 -19.398438 L 18.203125 -8.636719 C 16.429688 -6.910156 13.730469 -4.5625 10.761719 -4.5625 Z M 10.761719 -4.5625 "/></g></g></g><g fill="rgb(100%, 100%, 100%)" fill-opacity="1"><g transform="translate(334.88781, 239.302341)"><g><path d="M 21.171875 -13.242188 C 21.171875 -18.113281 20.859375 -23.605469 12.046875 -23.605469 C 3.71875 -23.605469 2.523438 -19.574219 2.523438 -13.417969 L 2.523438 -9.832031 C 2.523438 -3.984375 3.320312 0.441406 12.402344 0.441406 C 15.898438 0.441406 18.027344 0.0429688 20.0625 -0.707031 L 19.929688 -3.984375 C 17.183594 -3.277344 14.703125 -3.101562 12.402344 -3.101562 C 7.261719 -3.101562 6.597656 -5.359375 6.597656 -9.167969 L 6.597656 -10.230469 L 21.171875 -10.230469 Z M 6.597656 -13.90625 C 6.597656 -17.628906 7.128906 -20.152344 12.046875 -20.152344 C 17.273438 -20.152344 17.40625 -16.960938 17.40625 -14.082031 L 17.40625 -13.242188 L 6.597656 -13.242188 Z M 6.597656 -13.90625 "/></g></g></g></svg>